<?xml version="1.0" standalone="no"?>
<!DOCTYPE svg PUBLIC "-//W3C//DTD SVG 20010904//EN"
 "http://www.w3.org/TR/2001/REC-SVG-20010904/DTD/svg10.dtd">
<svg version="1.0" xmlns="http://www.w3.org/2000/svg"
 width="512.000000pt" height="512.000000pt" viewBox="0 0 512.000000 512.000000"
 preserveAspectRatio="xMidYMid meet">

<g transform="translate(0.000000,512.000000) scale(0.100000,-0.100000)"
fill="#000000" stroke="none">
<path d="M966 4694 c-383 -69 -723 -337 -867 -683 -63 -150 -81 -248 -83 -431
-1 -186 11 -256 72 -422 l36 -98 391 0 391 0 257 215 c246 205 260 215 300
215 86 0 84 2 291 -443 104 -224 192 -407 195 -407 3 0 107 296 231 658 240
704 239 701 311 716 20 4 45 0 73 -12 40 -18 47 -30 290 -473 137 -250 271
-493 297 -540 l48 -86 70 34 c145 69 327 117 489 129 107 8 98 0 143 133 83
244 82 508 -2 747 -128 366 -424 630 -825 735 -78 20 -112 23 -274 23 -159 0
-197 -3 -269 -22 -181 -48 -329 -124 -468 -241 -40 -34 -76 -61 -79 -61 -3 0
-32 23 -63 52 -142 130 -345 228 -549 263 -105 19 -301 18 -406 -1z"/>
<path d="M2537 3573 c-3 -5 -107 -305 -231 -668 -124 -362 -233 -669 -242
-683 -8 -13 -32 -30 -52 -39 -44 -18 -96 -6 -131 30 -12 13 -119 233 -237 488
-119 255 -217 465 -219 467 -1 2 -88 -68 -191 -155 -104 -87 -200 -166 -214
-176 -22 -15 -61 -17 -393 -17 -331 0 -369 -2 -363 -16 3 -8 37 -61 75 -117
335 -491 945 -1039 1520 -1365 l124 -71 58 29 c74 38 243 139 338 203 l73 49
-6 51 c-8 63 7 244 29 350 56 274 187 511 396 720 l118 118 -220 402 c-122
221 -222 403 -224 405 -2 2 -5 -1 -8 -5z"/>
<path d="M3635 2850 c-438 -88 -796 -402 -935 -820 -79 -235 -80 -533 -4 -766
140 -429 492 -744 934 -834 129 -27 333 -29 460 -6 516 93 915 494 1005 1010
19 112 19 298 0 409 -31 179 -91 329 -193 482 -183 276 -478 468 -811 530
-115 21 -339 19 -456 -5z m470 -239 c552 -133 885 -696 734 -1241 -96 -343
-378 -613 -736 -702 -131 -33 -341 -31 -474 5 -227 60 -417 188 -561 377 -212
278 -253 682 -104 1005 116 252 361 465 621 541 162 47 362 53 520 15z"/>
<path d="M3800 2400 l0 -130 75 0 75 0 0 130 0 130 -75 0 -75 0 0 -130z"/>
<path d="M3342 2204 c-22 -15 -52 -64 -52 -84 0 -7 40 -53 88 -103 139 -145
184 -222 230 -391 49 -178 126 -246 276 -246 141 1 244 101 254 247 5 75 -24
148 -83 205 -43 42 -54 46 -183 82 -156 43 -262 109 -392 240 -69 70 -95 80
-138 50z"/>
<path d="M2980 1640 l0 -80 135 0 135 0 0 80 0 80 -135 0 -135 0 0 -80z"/>
<path d="M4500 1640 l0 -80 135 0 135 0 0 80 0 80 -135 0 -135 0 0 -80z"/>
<path d="M3800 880 l0 -130 75 0 75 0 0 130 0 130 -75 0 -75 0 0 -130z"/>
</g>
</svg>
